<svg xmlns="http://www.w3.org/2000/svg" viewBox="0 0 80 80"><path fill="#DFBA69" d="M-30-30h140v140H-30z"/><path fill="#FFF" d="M12 11.813h56v41H12z"/><path d="M66 13.813v37H14v-37h52m4-4H10v45h60v-45z"/><path fill="none" stroke="#000" stroke-width="4" stroke-linecap="square" stroke-miterlimit="10" d="M40 62l10 10M40 62L30 72"/><path fill="#DFBA69" d="M20 70h40v10H20z"/><path fill="none" stroke="#000" stroke-width="4" stroke-miterlimit="10" d="M40 52v22"/><g><path d="M19.865 36l.295-1.514h-1.063L18.802 36h-.982l.294-1.514H17.05l.124-.9h1.104l.335-1.718H17.42l.122-.9h1.235l.286-1.514h.983l-.287 1.514h1.062l.287-1.514h.98l-.285 1.514h1.055l-.123.9H21.64l-.334 1.718h1.186l-.123.9H21.14L20.848 36h-.983zm.458-2.414l.336-1.718h-1.064l-.336 1.718h1.063zM25.086 36.082c-.786 0-1.34-.185-1.665-.553-.324-.37-.45-.954-.38-1.756l1.244-.09c-.044.568 0 .946.13 1.133.132.19.398.283.803.283.365 0 .648-.097.85-.29s.336-.52.402-.978l.48-3.395h-1.758l.13-.983h2.988l-.615 4.42c-.097.697-.363 1.24-.797 1.627-.434.39-1.038.582-1.812.582zM30.943 36.082c-.763 0-1.317-.192-1.66-.577s-.465-.934-.36-1.65l.31-2.224c.104-.72.382-1.276.834-1.668.453-.393 1.062-.59 1.826-.59s1.314.197 1.652.59.455.95.35 1.67l-.31 2.224c-.103.715-.378 1.264-.825 1.65s-1.053.576-1.817.576zm.13-.982c.4 0 .698-.1.897-.303.2-.2.332-.542.397-1.023l.294-2.06c.067-.492.03-.84-.11-1.05-.138-.206-.406-.31-.805-.31-.392 0-.69.104-.89.31-.204.21-.337.558-.403 1.05l-.294 2.06c-.066.48-.028.822.114 1.023.142.202.41.303.802.303zM37.39 36l-1.21-4.917L35.492 36H34.43l.916-6.546h1.447l1.27 5.14.718-5.14h1.066L38.93 36h-1.54zM42.48 36.082c-.808 0-1.386-.186-1.736-.557-.348-.37-.472-.926-.368-1.67l.312-2.224c.103-.752.384-1.317.842-1.693.458-.376 1.09-.564 1.898-.564.813 0 1.382.18 1.706.54.325.36.45.946.373 1.76l-1.236.08c.04-.55-.01-.92-.15-1.112-.14-.19-.42-.286-.84-.286-.43 0-.75.104-.96.31-.21.21-.348.558-.414 1.05l-.294 2.06c-.066.48-.023.822.126 1.023.15.202.44.303.872.303.42 0 .725-.094.916-.283.19-.187.347-.548.467-1.084l1.22.082c-.154.797-.444 1.373-.872 1.73-.428.358-1.048.537-1.86.537zM48.125 36.082c-.764 0-1.317-.192-1.66-.577s-.465-.934-.36-1.65l.31-2.224c.104-.72.382-1.276.834-1.668.452-.393 1.06-.59 1.824-.59s1.315.197 1.653.59.455.95.35 1.67l-.31 2.224c-.103.715-.378 1.264-.826 1.65s-1.05.576-1.815.576zm.13-.982c.4 0 .697-.1.896-.303.2-.2.333-.542.4-1.023l.293-2.06c.065-.492.03-.84-.11-1.05-.14-.206-.408-.31-.806-.31-.393 0-.69.104-.892.31-.202.21-.336.558-.4 1.05l-.295 2.06c-.067.48-.028.822.114 1.023.142.202.41.303.802.303zM54.572 36l-1.21-4.917L52.673 36H51.61l.917-6.546h1.448l1.268 5.14.72-5.14h1.064L56.11 36h-1.538zM57.542 36l.916-6.546h4.46l-.132.983h-3.23l-.296 2.085h2.66l-.14.983h-2.66L58.77 36H57.54z"/></g></svg>