<svg xmlns="http://www.w3.org/2000/svg" viewBox="0 0 80 80" enable-background="new 0 0 80 80"><circle cx="76" cy="76.5" r="2.5"/><circle cx="76" cy="64.5" r="2.5"/><circle cx="76" cy="52.5" r="2.5"/><circle cx="76" cy="40.5" r="2.5"/><circle cx="70" cy="70.5" r="2.5"/><circle cx="70" cy="58.5" r="2.5"/><circle cx="70" cy="46.5" r="2.5"/><circle cx="64" cy="76.5" r="2.5"/><path d="M60.5 70.5a2.5 2.5 0 0 1-5 0"/><circle cx="52" cy="76.5" r="2.5"/><g><path d="M48.5 70.5a2.5 2.5 0 0 1-5 0"/><circle cx="40" cy="76.5" r="2.5"/></g><g><path d="M36.5 70.5a2.5 2.5 0 0 1-5 0"/><circle cx="28" cy="76.5" r="2.5"/></g><g><path d="M24.5 70.5a2.5 2.5 0 0 1-5 0"/><circle cx="16" cy="76.5" r="2.5"/></g><g><circle cx="10" cy="70.5" r="2.5"/><circle cx="10" cy="58.5" r="2.5"/><circle cx="10" cy="46.5" r="2.5"/><g><circle cx="4" cy="76.5" r="2.5"/><circle cx="4" cy="64.5" r="2.5"/><circle cx="4" cy="52.5" r="2.5"/><circle cx="4" cy="40.5" r="2.5"/></g></g><g><path fill="#FFF" d="M66 70H14a4 4 0 0 1-4-4V14a4 4 0 0 1 4-4h52a4 4 0 0 1 4 4v52a4 4 0 0 1-4 4z"/></g><path fill="#F2E9D7" d="M10.834 11.562h57.104v12.543H10.834z"/><path d="M23 5h4v10h-4zM53 5h4v10h-4z"/><path fill="none" stroke="#000" stroke-width="4" stroke-miterlimit="10" d="M66 70H14a4 4 0 0 1-4-4V14a4 4 0 0 1 4-4h52a4 4 0 0 1 4 4v52a4 4 0 0 1-4 4z"/><defs><filter id="a" filterUnits="userSpaceOnUse" x="10" y="20" width="60" height="8"><feColorMatrix values="1 0 0 0 0 0 1 0 0 0 0 0 1 0 0 0 0 0 1 0"/></filter></defs><mask maskUnits="userSpaceOnUse" x="10" y="20" width="60" height="8" id="b"><ellipse fill="#FFF" cx="40" cy="23.5" rx="30" ry="27.5" filter="url(#a)"/></mask><g mask="url(#b)"><path fill="none" stroke="#000" stroke-width="4" stroke-miterlimit="10" d="M70 26c-4.997 0-4.997-4-9.995-4-5 0-5 4-9.997 4-5 0-5-4-10-4s-5 4-10 4-5-4-10.003-4S15.002 26 10 26"/></g><g><path d="M33.93 52.9l16.972-16.97 2.828 2.827-16.97 16.97z"/><path d="M28.27 47.238l2.83-2.83 8.488 8.49-2.828 2.83z"/></g></svg>
