<svg xmlns="http://www.w3.org/2000/svg" viewBox="0 0 80 80"><path fill="#DFBA69" d="M-30-30h140v140H-30z"/><path fill="#FFF" stroke="#000" stroke-width="4" stroke-miterlimit="10" d="M40 67v9"/><path d="M55.5 8.153C70.303 16.7 75.394 35.697 66.847 50.5S39.303 70.394 24.5 61.847 4.606 34.303 13.153 19.5 40.697-.394 55.5 8.153m2-3.464C40.76-4.977 19.354.76 9.69 17.5S5.76 55.646 22.5 65.31s38.146 3.93 47.81-12.81S74.24 14.354 57.5 4.69z"/><path fill="#DFBA69" d="M22.5 65.31l-30.31-17.5 35-60.62L57.5 4.69z"/><path fill="#FFF" d="M27.25 57.084c-12.177-7.03-16.364-22.657-9.334-34.834S40.573 5.886 52.75 12.916s16.364 22.657 9.334 34.834-22.657 16.364-34.834 9.334z"/><path d="M51.75 14.648c11.222 6.48 15.08 20.88 8.602 32.102s-20.88 15.08-32.102 8.602-15.08-20.88-8.602-32.102 20.88-15.08 32.102-8.602m2-3.464C40.597 3.59 23.778 8.097 16.184 21.25S13.097 51.222 26.25 58.816s29.972 3.087 37.566-10.066 3.087-29.972-10.066-37.566z"/><g><circle cx="33.134" cy="44.892" r="2.5"/><circle cx="39.134" cy="34.5" r="2.5"/><circle cx="45.134" cy="24.108" r="2.5"/><g><circle cx="24.938" cy="47.088" r="2.5"/><circle cx="30.938" cy="36.696" r="2.5"/><circle cx="36.938" cy="26.304" r="2.5"/><circle cx="42.938" cy="15.912" r="2.5"/></g><g><circle cx="22.742" cy="38.892" r="2.5"/><circle cx="28.742" cy="28.5" r="2.5"/><circle cx="34.742" cy="18.108" r="2.5"/><g><circle cx="20.546" cy="30.696" r="2.5"/><circle cx="26.546" cy="20.304" r="2.5"/></g></g></g><path fill="none" stroke="#000" stroke-width="4" stroke-miterlimit="10" d="M27 75h26"/></svg>