<svg xmlns="http://www.w3.org/2000/svg" viewBox="0 0 80 80"><path fill="#DFBA69" d="M-30-30h140v140H-30z"/><path fill="#FFF" stroke="#000" stroke-width="4" stroke-miterlimit="10" d="M65 34.54c0 13.807-17.5 36.666-25 36.666S15 48.346 15 34.54s11.193-25 25-25 25 11.193 25 25z"/><circle cx="28" cy="38" r="3"/><path d="M28 36c1.103 0 2 .897 2 2s-.897 2-2 2-2-.897-2-2 .897-2 2-2m0-2a4 4 0 1 0 0 8 4 4 0 0 0 0-8z"/><path d="M28 33c4.142 0 7.5 5 7.5 5s-3.358 5-7.5 5-7.5-5-7.5-5 3.358-5 7.5-5m0-2c-5.062 0-8.756 5.283-9.16 5.885L18.09 38l.75 1.115C19.244 39.717 22.938 45 28 45s8.756-5.283 9.16-5.885L37.91 38l-.75-1.115C36.756 36.283 33.062 31 28 31z"/><g><circle cx="52" cy="38" r="3"/><path d="M52 36c1.103 0 2 .897 2 2s-.897 2-2 2-2-.897-2-2 .897-2 2-2m0-2a4 4 0 1 0 0 8 4 4 0 0 0 0-8z"/><g><path d="M52 33c4.142 0 7.5 5 7.5 5s-3.358 5-7.5 5-7.5-5-7.5-5 3.358-5 7.5-5m0-2c-5.062 0-8.756 5.283-9.16 5.885L42.09 38l.75 1.115C43.244 39.717 46.938 45 52 45s8.756-5.283 9.16-5.885L61.91 38l-.75-1.115C60.756 36.283 57.062 31 52 31z"/></g></g><g><circle cx="40" cy="23" r="3"/><path d="M40 21c1.103 0 2 .897 2 2s-.897 2-2 2-2-.897-2-2 .897-2 2-2m0-2a4 4 0 1 0 0 8 4 4 0 0 0 0-8z"/><g><path d="M40 18c4.142 0 7.5 5 7.5 5s-3.358 5-7.5 5-7.5-5-7.5-5 3.358-5 7.5-5m0-2c-5.062 0-8.756 5.283-9.16 5.885L30.09 23l.75 1.115C31.244 24.717 34.938 30 40 30s8.756-5.283 9.16-5.885L49.91 23l-.75-1.115C48.756 21.283 45.062 16 40 16z"/></g></g></svg>