<svg xmlns="http://www.w3.org/2000/svg" viewBox="0 0 80 80"><path fill="#FFF" d="M12 69V27.07L40 8.403 68 27.07V69z"/><path d="M40 10.807L66 28.14V67H14V28.14l26-17.333M40 6L10 26v45h60V26L40 6z"/><path fill="#FFF" stroke="#000" stroke-width="4" stroke-miterlimit="10" d="M56.125 38.5L40 52.5l-16-14-.125-27.645h32.25z"/><path fill="none" stroke="#000" stroke-width="4" stroke-miterlimit="10" d="M68 28L40 52.5 12 28"/><path fill="#FFF" d="M35.43 48.5h9.142v12.75H35.43z"/><path fill="none" stroke="#000" stroke-width="4" stroke-miterlimit="10" d="M68 69L40 44.5 12 69"/><g><path d="M29.034 20l.204-1.454h.475c.17 0 .296.048.38.144.082.096.112.224.09.384l-.058.405a.585.585 0 0 1-.197.378.62.62 0 0 1-.42.142h-.474zm.304-.218h.182c.103 0 .18-.027.234-.08s.087-.136.102-.242l.05-.367c.017-.11.006-.192-.03-.246-.04-.056-.11-.083-.212-.083h-.183l-.142 1.018zM31.347 19.75a.476.476 0 0 1-.197.208.758.758 0 0 1-.34.06.52.52 0 0 1-.344-.104c-.08-.07-.112-.174-.094-.312l.04-.29c.02-.137.08-.24.18-.313s.222-.11.373-.11c.15 0 .265.038.343.11s.106.18.087.318l-.028.19h-.71l-.013.106c-.01.073 0 .125.03.16.032.036.087.053.166.053a.37.37 0 0 0 .167-.03.277.277 0 0 0 .113-.11l.227.064zm-.66-.457l-.007.056h.436l.005-.04c.014-.084.005-.144-.024-.18-.03-.035-.082-.054-.16-.054s-.135.018-.173.05c-.038.035-.063.09-.075.167zM31.893 20.02a.35.35 0 0 1-.24-.082c-.06-.053-.083-.13-.068-.234a.32.32 0 0 1 .134-.23.456.456 0 0 1 .27-.08h.312l.02-.14c.006-.056-.005-.096-.034-.12-.028-.027-.076-.04-.142-.04-.066 0-.117.01-.153.034s-.067.068-.094.138l-.222-.046c.04-.116.1-.2.18-.252a.594.594 0 0 1 .324-.077c.14 0 .25.03.32.087.074.056.102.145.085.265l-.062.44c-.008.055.002.09.034.103.03.014.077.016.14.008l-.03.205a.4.4 0 0 1-.226-.008c-.06-.023-.092-.078-.097-.163h-.045a.567.567 0 0 1-.41.192zm.085-.19c.05 0 .1-.008.145-.023a.42.42 0 0 0 .13-.078l.026-.177h-.273a.197.197 0 0 0-.11.03c-.03.02-.048.056-.056.11-.005.045.003.078.023.103.02.023.06.035.115.035zM32.926 20l.152-1.09h.274l-.027.19h.055a.372.372 0 0 1 .144-.16.42.42 0 0 1 .205-.05c.086 0 .152.028.196.082s.058.13.045.228l-.025.184h-.25l.012-.1c.01-.056.003-.098-.018-.128s-.06-.044-.115-.044a.32.32 0 0 0-.143.036.382.382 0 0 0-.13.116l-.104.736h-.272zM35.867 20.02c-.175 0-.298-.042-.37-.124s-.1-.212-.085-.39l.276-.02c-.01.125 0 .21.03.25s.09.064.178.064c.082 0 .144-.022.19-.065s.073-.115.088-.216l.107-.756h-.39l.03-.218h.663l-.136.98a.573.573 0 0 1-.177.363c-.097.086-.23.13-.403.13zM37.17 20.02c-.155 0-.272-.038-.348-.11s-.105-.174-.087-.305l.04-.294c.02-.132.08-.236.176-.31s.224-.11.38-.11.27.038.344.113c.075.074.102.18.085.31l-.043.296c-.02.13-.075.23-.17.3s-.223.11-.377.11zm.028-.21c.075 0 .133-.018.173-.053a.246.246 0 0 0 .076-.16l.04-.28c.01-.074 0-.13-.03-.165s-.082-.052-.157-.052-.135.017-.175.052c-.04.035-.065.09-.075.164l-.038.275c-.012.076-.002.132.028.167s.083.053.158.053zM37.953 20l.152-1.09h.273l-.025.19h.054a.424.424 0 0 1 .365-.21c.1 0 .174.032.222.094.047.063.064.15.05.258l-.108.758h-.273l.1-.71c.01-.058 0-.102-.022-.132-.023-.03-.06-.046-.113-.046a.336.336 0 0 0-.147.04.554.554 0 0 0-.153.118l-.1.73h-.274zM39.374 20.318l.26-.772h.436l-.505.772h-.19zM29.37 22.42a.278.278 0 0 1-.222-.095c-.054-.062-.073-.148-.057-.258l.106-.757h.273l-.097.69c-.01.064-.003.113.02.146.023.033.06.05.114.05.048 0 .096-.016.145-.046s.1-.072.154-.128l.1-.712h.272l-.153 1.09h-.272l.027-.19h-.054c-.04.068-.092.12-.16.156s-.13.053-.195.053zM30.38 22.4l.152-1.09h.274l-.027.19h.054a.372.372 0 0 1 .145-.16.42.42 0 0 1 .204-.05c.087 0 .152.028.196.082s.058.13.045.23l-.026.182h-.252l.013-.1c.01-.056.004-.098-.016-.127s-.06-.044-.115-.044a.32.32 0 0 0-.144.036.382.382 0 0 0-.13.114l-.104.736h-.272zM32.926 22.4l.152-1.09h.274l-.027.19h.055a.372.372 0 0 1 .144-.16.42.42 0 0 1 .206-.05c.086 0 .152.028.196.082s.058.13.045.23l-.025.182h-.25l.012-.1c.01-.056.003-.098-.018-.127s-.06-.044-.115-.044a.32.32 0 0 0-.143.036.382.382 0 0 0-.13.114l-.104.736h-.272zM35.165 22.15a.476.476 0 0 1-.196.208.758.758 0 0 1-.34.06.52.52 0 0 1-.346-.104c-.08-.07-.112-.173-.094-.312l.04-.29c.02-.137.08-.24.18-.313s.223-.11.373-.11c.152 0 .266.038.343.11s.106.18.087.32l-.027.19h-.71l-.014.105c-.01.072 0 .125.03.16.032.035.087.053.166.053a.37.37 0 0 0 .167-.032.277.277 0 0 0 .113-.11l.227.065zm-.658-.457l-.01.056h.438l.004-.04c.012-.084.003-.144-.026-.18-.028-.035-.082-.053-.16-.053-.077 0-.135.017-.173.05-.037.035-.06.09-.073.166zM35.71 22.42a.35.35 0 0 1-.238-.08c-.06-.055-.083-.133-.07-.236a.32.32 0 0 1 .135-.23.456.456 0 0 1 .272-.08h.31l.02-.14c.006-.055-.004-.095-.034-.12-.028-.026-.076-.04-.14-.04-.068 0-.118.012-.154.034s-.068.07-.094.138l-.222-.046c.04-.116.102-.2.18-.252A.594.594 0 0 1 36 21.29c.142 0 .25.03.32.087.075.057.102.145.085.266l-.06.44c-.01.055 0 .09.032.103.03.013.078.015.14.007l-.03.205a.4.4 0 0 1-.224-.007c-.06-.023-.093-.078-.098-.162h-.045a.567.567 0 0 1-.41.19zm.086-.19c.05 0 .1-.007.145-.023a.42.42 0 0 0 .132-.077l.026-.177h-.273a.197.197 0 0 0-.11.03c-.03.02-.048.056-.056.112-.007.044 0 .077.022.1.02.025.058.036.114.036zM36.698 22.4l.03-.21h.354l.146-1.035h-.355l.03-.21h.626l-.176 1.246h.346l-.03.21H36.7zM39.907 22.21a.45.45 0 0 1-.152.153.377.377 0 0 1-.2.056c-.106 0-.183-.038-.23-.11a.39.39 0 0 1-.047-.28l.045-.322c.02-.13.073-.23.164-.304a.543.543 0 0 1 .353-.11.693.693 0 0 1 .243.047l.055-.394h.273l-.203 1.454h-.272l.027-.19h-.055zm-.207-.015a.298.298 0 0 0 .14-.035.605.605 0 0 0 .143-.105l.07-.496c-.03-.02-.06-.036-.094-.045s-.072-.015-.11-.015a.267.267 0 0 0-.176.052.246.246 0 0 0-.08.158l-.04.283c-.01.07 0 .12.024.153.026.033.067.05.122.05zM40.825 22.42a.278.278 0 0 1-.222-.095c-.055-.062-.074-.148-.058-.258l.105-.757h.273l-.096.69c-.01.064-.003.113.02.146.023.033.06.05.114.05.05 0 .097-.016.146-.046s.1-.072.154-.128l.1-.712h.272l-.152 1.09h-.273l.027-.19h-.054c-.04.068-.092.12-.16.156s-.13.053-.195.053zM42.054 21.624l-.11.776h-.23l.152-1.09h.23l-.02.145h.045c.03-.05.066-.09.103-.118a.194.194 0 0 1 .118-.042c.045 0 .08.014.108.04a.183.183 0 0 1 .05.12h.045c.03-.05.064-.09.105-.118a.228.228 0 0 1 .133-.042c.057 0 .098.023.125.07.028.046.035.11.024.19l-.12.845h-.23l.112-.797c.005-.042.003-.073-.005-.094s-.022-.033-.042-.033c-.02 0-.043.013-.073.04a.527.527 0 0 0-.088.107l-.108.776h-.228l.113-.797a.21.21 0 0 0-.004-.094c-.01-.023-.023-.033-.042-.033s-.043.012-.07.037a.57.57 0 0 0-.09.11zM43.52 22.415a.885.885 0 0 1-.46-.133l.187-1.336h.273l-.077.554h.055a.418.418 0 0 1 .15-.154.392.392 0 0 1 .203-.055c.104 0 .18.036.23.105.048.07.065.165.047.286l-.045.322c-.02.133-.077.234-.174.306s-.225.107-.388.107zm.04-.21a.27.27 0 0 0 .17-.05c.043-.032.07-.085.08-.158l.04-.28c.008-.07.002-.12-.024-.154-.024-.034-.065-.05-.12-.05-.047 0-.093.012-.14.036s-.094.057-.144.104l-.07.495a.373.373 0 0 0 .207.056zM45.893 22.42a.35.35 0 0 1-.24-.08c-.06-.055-.083-.133-.068-.236a.32.32 0 0 1 .134-.23.456.456 0 0 1 .27-.08h.312l.02-.14c.006-.055-.005-.095-.034-.12-.028-.026-.076-.04-.142-.04-.066 0-.117.012-.153.034s-.067.07-.094.138l-.222-.046c.04-.116.1-.2.18-.252a.594.594 0 0 1 .324-.077c.14 0 .25.03.32.087.074.057.102.145.085.266l-.062.44c-.008.055.002.09.034.103.03.013.077.015.14.007l-.03.205a.4.4 0 0 1-.226-.007c-.06-.023-.092-.078-.097-.162h-.045a.567.567 0 0 1-.41.19zm.085-.19c.05 0 .1-.007.145-.023a.42.42 0 0 0 .13-.077l.026-.177h-.273a.197.197 0 0 0-.11.03c-.03.02-.048.056-.056.112-.005.044.003.077.023.1.02.025.06.036.115.036zM47.542 22.42c-.136 0-.236-.033-.303-.098s-.09-.16-.073-.284l.073-.52h-.282l.03-.208h.282l.05-.364h.273l-.05.364h.436l-.03.21h-.437l-.068.484c-.01.07 0 .12.028.152s.07.048.13.048a.74.74 0 0 0 .234-.036l.01.207a.82.82 0 0 1-.13.03 1.18 1.18 0 0 1-.175.014zM29.542 24.814a.933.933 0 0 1-.272-.04.656.656 0 0 1-.224-.114l.106-.18c.06.046.125.083.2.107s.15.036.22.036c.06 0 .11-.01.153-.026s.065-.05.07-.1c.01-.045-.005-.077-.038-.097a.583.583 0 0 0-.188-.047c-.144-.016-.25-.046-.32-.092s-.096-.12-.08-.224c.015-.11.07-.194.162-.255s.203-.09.332-.09a.762.762 0 0 1 .443.144l-.098.172a.65.65 0 0 0-.366-.124.292.292 0 0 0-.135.028.118.118 0 0 0-.067.096c-.005.046.01.077.05.096s.106.033.205.045c.138.017.24.05.3.103s.088.124.074.22a.34.34 0 0 1-.17.257c-.1.058-.22.087-.36.087zM30.996 24.818c-.136 0-.236-.032-.303-.096s-.09-.16-.072-.285l.074-.52h-.282l.03-.208h.282l.05-.364h.273l-.05.363h.436l-.03.208h-.436l-.068.485c-.01.07 0 .12.027.153.028.03.07.048.13.048a.74.74 0 0 0 .234-.036l.01.206a.82.82 0 0 1-.13.032 1.18 1.18 0 0 1-.174.012zM31.916 24.818a.278.278 0 0 1-.223-.093c-.054-.063-.073-.15-.057-.258l.105-.758h.274l-.096.688c-.01.066-.003.115.02.147.023.033.06.05.114.05.048 0 .095-.016.145-.045s.1-.072.154-.128l.1-.713h.273l-.153 1.09h-.272l.027-.19h-.054a.412.412 0 0 1-.354.21zM33.093 25.163l.175-1.245h-.3l.028-.21h.3l.01-.064a.355.355 0 0 1 .16-.25.57.57 0 0 1 .33-.094c.047 0 .097.004.146.012.05.007.093.02.13.034l-.06.19a.664.664 0 0 0-.223-.036c-.06 0-.108.013-.145.037s-.06.066-.07.12l-.006.052h.426l-.028.208h-.428l-.175 1.245h-.272zM34.365 25.163l.175-1.245h-.3l.03-.21h.3l.008-.064a.355.355 0 0 1 .16-.25.57.57 0 0 1 .33-.094c.047 0 .097.004.147.012.05.007.093.02.13.034l-.062.19a.664.664 0 0 0-.22-.036c-.06 0-.11.013-.146.037s-.06.066-.068.12l-.008.052h.427l-.03.208h-.428l-.174 1.245h-.273zM36.984 24.818a.35.35 0 0 1-.24-.08c-.06-.053-.082-.132-.067-.234a.32.32 0 0 1 .134-.23.456.456 0 0 1 .272-.082h.312l.02-.14c.006-.054-.005-.094-.034-.12-.028-.025-.076-.037-.142-.037-.066 0-.117.01-.153.033s-.067.068-.094.137l-.22-.045c.04-.117.1-.2.18-.252a.594.594 0 0 1 .323-.078c.142 0 .25.03.322.086.073.057.1.146.084.266l-.063.44c-.01.055.002.09.033.103.032.014.08.016.14.008l-.028.205a.4.4 0 0 1-.226-.008c-.06-.023-.093-.078-.098-.163h-.044a.567.567 0 0 1-.41.19zm.085-.187a.42.42 0 0 0 .276-.102l.025-.175h-.27a.197.197 0 0 0-.113.03c-.028.018-.047.055-.054.11-.006.045.002.078.022.103.02.023.06.035.114.035zM37.953 24.8l.152-1.09h.273l-.025.19h.054a.424.424 0 0 1 .365-.21c.1 0 .174.032.222.094.047.063.064.15.05.258l-.108.758h-.273l.1-.71c.01-.058 0-.102-.022-.132-.023-.03-.06-.046-.113-.046a.336.336 0 0 0-.147.04.554.554 0 0 0-.153.117l-.1.73h-.274zM39.907 24.61a.45.45 0 0 1-.152.153.377.377 0 0 1-.2.055c-.106 0-.183-.037-.23-.11a.39.39 0 0 1-.047-.28l.045-.32c.02-.13.073-.232.164-.304a.543.543 0 0 1 .353-.11.693.693 0 0 1 .243.046l.055-.394h.273l-.203 1.454h-.272l.027-.19h-.055zm-.207-.015a.298.298 0 0 0 .14-.035.605.605 0 0 0 .143-.106l.07-.496c-.03-.02-.06-.034-.094-.044s-.072-.015-.11-.015a.267.267 0 0 0-.176.05.246.246 0 0 0-.08.16l-.04.283c-.01.07 0 .12.024.152.026.033.067.05.122.05zM42.098 24.818a.278.278 0 0 1-.223-.093c-.055-.063-.073-.15-.058-.258l.106-.758h.272l-.095.688c-.01.066-.003.115.02.147.023.033.06.05.113.05.048 0 .096-.016.146-.045s.1-.072.152-.128l.1-.713h.272l-.152 1.09h-.272l.027-.19h-.055c-.04.068-.092.12-.158.156s-.132.052-.196.052zM43.107 24.8l.153-1.09h.273l-.026.19h.055a.372.372 0 0 1 .144-.16.42.42 0 0 1 .205-.05c.088 0 .153.028.197.08s.06.13.045.23l-.025.184h-.25l.012-.1c.007-.057.002-.1-.02-.128s-.057-.044-.113-.044a.32.32 0 0 0-.144.036.382.382 0 0 0-.13.115l-.103.737h-.273zM45.893 24.818a.35.35 0 0 1-.24-.08c-.06-.053-.083-.132-.068-.234a.32.32 0 0 1 .134-.23.456.456 0 0 1 .27-.082h.312l.02-.14c.006-.054-.005-.094-.034-.12-.028-.025-.076-.037-.142-.037-.066 0-.117.01-.153.033s-.067.068-.094.137l-.222-.045c.04-.117.1-.2.18-.252a.594.594 0 0 1 .324-.078c.14 0 .25.03.32.086.074.057.102.146.085.266l-.062.44c-.008.055.002.09.034.103.03.014.077.016.14.008l-.03.205a.4.4 0 0 1-.226-.008c-.06-.023-.092-.078-.097-.163h-.045a.567.567 0 0 1-.41.19zm.085-.187a.42.42 0 0 0 .276-.102l.025-.175h-.273a.197.197 0 0 0-.11.03c-.03.018-.048.055-.056.11-.005.045.003.078.023.103.02.023.06.035.115.035zM29.52 27.215a.885.885 0 0 1-.46-.133l.187-1.336h.273l-.077.554h.055a.418.418 0 0 1 .15-.155.392.392 0 0 1 .203-.054c.104 0 .18.036.23.104.048.07.065.165.047.286l-.045.322c-.02.133-.077.234-.174.305s-.225.108-.388.108zm.04-.21a.27.27 0 0 0 .17-.05c.043-.032.07-.085.08-.158l.04-.28c.008-.07.002-.12-.024-.154-.024-.034-.065-.05-.12-.05-.047 0-.093.012-.14.036s-.094.057-.144.104l-.07.495a.373.373 0 0 0 .207.056zM30.62 27.22a.35.35 0 0 1-.24-.08c-.06-.055-.082-.133-.068-.236a.32.32 0 0 1 .134-.23.456.456 0 0 1 .272-.08h.31l.02-.14c.008-.056-.003-.096-.032-.12-.03-.026-.077-.04-.142-.04-.066 0-.117.012-.153.034s-.067.068-.093.138l-.222-.046c.04-.116.102-.2.18-.252a.594.594 0 0 1 .324-.077c.14 0 .248.03.32.087.074.056.1.145.084.265l-.06.44c-.01.055 0 .09.032.103.03.014.078.016.14.008l-.03.205a.4.4 0 0 1-.224-.008c-.06-.023-.093-.078-.098-.163h-.045a.567.567 0 0 1-.41.192zm.085-.19c.05 0 .1-.008.146-.023a.42.42 0 0 0 .13-.077l.027-.177h-.273a.197.197 0 0 0-.11.03c-.03.02-.048.056-.056.112-.005.043.002.077.023.1.02.025.06.036.115.036zM32.27 27.01a.45.45 0 0 1-.152.153.377.377 0 0 1-.2.056c-.105 0-.183-.038-.23-.11a.39.39 0 0 1-.046-.28l.045-.322c.018-.13.073-.232.164-.304a.543.543 0 0 1 .353-.11.693.693 0 0 1 .243.047l.055-.394h.274L32.57 27.2h-.272l.027-.19h-.054zm-.207-.015a.298.298 0 0 0 .14-.035.605.605 0 0 0 .144-.106l.07-.496c-.03-.02-.06-.034-.095-.044s-.07-.014-.11-.014a.267.267 0 0 0-.175.052.246.246 0 0 0-.08.158l-.04.283c-.01.07 0 .12.024.152.027.034.068.05.123.05zM34.816 27.01a.45.45 0 0 1-.152.153.377.377 0 0 1-.2.056c-.106 0-.183-.038-.23-.11a.39.39 0 0 1-.047-.28l.045-.322c.02-.13.074-.232.164-.304a.543.543 0 0 1 .353-.11.693.693 0 0 1 .242.047l.055-.394h.273l-.204 1.454h-.272l.027-.19h-.054zm-.207-.015a.298.298 0 0 0 .138-.035.605.605 0 0 0 .145-.106l.07-.496c-.03-.02-.06-.034-.095-.044s-.07-.014-.11-.014a.267.267 0 0 0-.175.052.246.246 0 0 0-.08.158l-.04.283c-.01.07 0 .12.024.152.026.034.067.05.122.05zM36.438 26.95a.476.476 0 0 1-.197.208.758.758 0 0 1-.34.06.52.52 0 0 1-.343-.104c-.08-.07-.113-.174-.094-.312l.04-.29c.02-.137.08-.24.18-.313s.222-.11.373-.11c.15 0 .265.038.342.11s.107.18.087.32l-.027.19h-.71l-.014.104c-.01.073 0 .125.032.16.03.036.086.053.165.053a.37.37 0 0 0 .168-.03.277.277 0 0 0 .113-.11l.227.064zm-.66-.457l-.007.056h.437l.005-.04c.013-.084.004-.144-.025-.18-.03-.035-.083-.054-.16-.054-.078 0-.135.018-.173.05-.04.035-.063.09-.075.167zM37.18 27.215a.933.933 0 0 1-.274-.04.656.656 0 0 1-.223-.114l.106-.18c.058.047.124.083.2.107s.148.036.22.036c.06 0 .11-.008.15-.026s.067-.05.073-.1c.007-.044-.006-.077-.04-.096a.583.583 0 0 0-.187-.047c-.143-.016-.25-.046-.318-.092s-.097-.12-.082-.223c.015-.11.07-.195.163-.255s.202-.09.33-.09a.762.762 0 0 1 .444.142l-.098.172a.65.65 0 0 0-.366-.124.292.292 0 0 0-.134.03.118.118 0 0 0-.066.094c-.006.046.01.077.05.096s.105.033.205.046c.138.016.238.05.3.102s.088.124.074.22a.34.34 0 0 1-.172.257c-.1.06-.22.088-.36.088zM37.962 27.2l.03-.21h.345l.094-.672h-.344l.028-.21h.618l-.123.883h.345l-.03.21h-.963zm.67-1.272a.292.292 0 0 1-.136-.028c-.032-.018-.046-.05-.04-.094l.002-.02c.008-.047.03-.08.068-.098s.087-.028.145-.028c.06 0 .105.01.14.028s.044.05.038.098l-.002.02a.115.115 0 0 1-.07.094.353.353 0 0 1-.143.028zM40.27 27.268a.322.322 0 0 1-.144.23.515.515 0 0 1-.297.084H39.5a.482.482 0 0 1-.287-.07.184.184 0 0 1-.08-.19.222.222 0 0 1 .073-.143.257.257 0 0 1 .148-.066l.003-.036a.203.203 0 0 1-.1-.057c-.026-.028-.034-.07-.026-.13.01-.06.037-.11.083-.153a.3.3 0 0 1 .18-.073l.007-.035c-.06-.018-.1-.045-.122-.083a.185.185 0 0 1-.024-.125l.003-.025a.288.288 0 0 1 .145-.21.583.583 0 0 1 .31-.078h.596l-.024.18-.286-.037-.004.034a.166.166 0 0 1 .124.186l-.004.027a.278.278 0 0 1-.14.206.613.613 0 0 1-.318.074h-.19a.156.156 0 0 0-.087.022c-.02.014-.034.04-.04.075-.003.033.004.06.025.074.02.017.053.025.097.025h.367c.112 0 .2.023.264.07.065.048.09.122.077.223zm-.743.14h.336c.048 0 .087-.007.118-.022s.052-.046.06-.09c.006-.046-.004-.076-.03-.092s-.06-.023-.105-.023h-.487l-.017.106c-.004.04.004.07.025.092.02.02.054.03.102.03zm.24-.78c.06 0 .108-.01.14-.035s.054-.06.06-.104l.01-.075c.007-.044-.003-.077-.03-.1-.028-.023-.072-.035-.133-.035a.248.248 0 0 0-.14.034.14.14 0 0 0-.06.1l-.01.075c-.006.044.003.078.03.103.025.024.07.036.132.036zM40.498 27.2l.152-1.09h.273l-.026.19h.055a.412.412 0 0 1 .365-.21c.1 0 .173.032.22.095.048.062.065.148.05.257l-.108.758h-.273l.1-.71c.008-.057 0-.1-.022-.132-.023-.03-.06-.045-.113-.045a.336.336 0 0 0-.147.04.554.554 0 0 0-.153.117l-.1.73h-.274zM42.8 26.95a.476.476 0 0 1-.196.208.758.758 0 0 1-.34.06.52.52 0 0 1-.344-.104c-.08-.07-.112-.174-.094-.312l.04-.29c.02-.137.08-.24.18-.313s.223-.11.373-.11.265.038.342.11.106.18.087.32l-.03.19h-.708l-.014.104c-.01.073 0 .125.03.16.032.036.087.053.166.053a.37.37 0 0 0 .167-.03.277.277 0 0 0 .114-.11l.227.064zm-.657-.457l-.01.056h.437l.005-.04c.013-.084.004-.144-.025-.18-.03-.035-.082-.054-.16-.054-.077 0-.135.018-.173.05-.038.035-.063.09-.074.167zM43.107 27.2l.153-1.09h.273l-.026.19h.055a.372.372 0 0 1 .144-.16.42.42 0 0 1 .205-.05c.088 0 .153.028.197.082s.06.13.045.228l-.025.184h-.25l.012-.1c.007-.056.002-.098-.02-.128s-.057-.044-.113-.044a.32.32 0 0 0-.144.037.382.382 0 0 0-.13.114l-.103.736h-.273zM44.807 27.22c-.072 0-.127-.018-.166-.05s-.054-.077-.045-.14l.013-.102a.192.192 0 0 1 .086-.142c.05-.033.11-.05.18-.05s.127.017.165.05c.037.032.052.08.043.142l-.015.103c-.007.063-.036.11-.085.14s-.107.05-.176.05zM29.125 32l.204-1.454h.272l-.173 1.236h.635l-.03.218h-.91zM30.806 32.02c-.156 0-.272-.038-.348-.11s-.105-.174-.087-.305l.042-.294c.02-.132.078-.236.175-.31s.223-.11.378-.11.27.038.345.113c.075.074.102.18.085.31l-.042.296c-.02.13-.076.23-.17.3s-.223.11-.377.11zm.028-.21c.075 0 .133-.018.173-.053a.246.246 0 0 0 .075-.16l.04-.28c.01-.074 0-.13-.03-.165s-.082-.052-.157-.052-.134.017-.174.052c-.04.035-.065.09-.074.164l-.04.275c-.01.076 0 .132.03.167s.083.053.158.053zM32.27 32.02c-.137 0-.238-.034-.304-.098s-.09-.16-.072-.284l.073-.52h-.282l.03-.21h.28l.052-.362h.272l-.05.363h.435l-.03.208h-.436l-.068.486c-.01.07 0 .12.027.152.028.03.07.048.13.048a.74.74 0 0 0 .234-.036l.008.207a.82.82 0 0 1-.13.03 1.18 1.18 0 0 1-.173.014zM33.36 32.015a.933.933 0 0 1-.272-.04.656.656 0 0 1-.224-.115l.107-.18c.06.047.126.083.2.107s.15.036.22.036c.06 0 .11-.01.153-.026s.065-.05.07-.1c.01-.045-.005-.077-.038-.096a.583.583 0 0 0-.187-.047c-.144-.016-.25-.046-.32-.092s-.095-.12-.08-.224c.015-.11.07-.194.162-.255s.204-.09.332-.09a.762.762 0 0 1 .444.144l-.1.172a.65.65 0 0 0-.364-.124.292.292 0 0 0-.135.028.118.118 0 0 0-.065.096c-.006.046.01.077.05.096s.105.033.205.046c.137.016.238.05.3.102s.087.124.074.22a.34.34 0 0 1-.17.257c-.1.058-.22.088-.36.088zM35.896 32.02c-.155 0-.27-.038-.347-.11s-.107-.174-.088-.305l.04-.294c.02-.132.08-.236.176-.31s.222-.11.378-.11.27.038.344.113c.076.074.103.18.085.31l-.042.296c-.018.13-.075.23-.17.3s-.222.11-.377.11zm.03-.21c.074 0 .132-.018.172-.053a.246.246 0 0 0 .075-.16l.04-.28c.01-.074 0-.13-.03-.165s-.082-.052-.158-.052-.133.017-.173.052c-.04.035-.066.09-.076.164l-.038.275c-.01.076-.002.132.03.167s.082.053.157.053zM36.91 32.363l.176-1.245h-.3l.028-.21h.3l.01-.064a.355.355 0 0 1 .16-.25.57.57 0 0 1 .33-.094c.047 0 .097.004.147.012.05.008.094.02.132.034l-.063.19a.664.664 0 0 0-.223-.036c-.06 0-.107.013-.144.037s-.06.066-.068.12l-.007.052h.426l-.028.208h-.428l-.174 1.245h-.273zM39.243 32l.03-.21h.354l.145-1.035h-.354l.03-.21h.626l-.175 1.246h.345l-.03.21h-.972zM40.987 32.02c-.155 0-.27-.038-.347-.11s-.106-.174-.087-.305l.04-.294c.02-.132.08-.236.176-.31s.22-.11.376-.11.27.038.345.113c.076.074.104.18.086.31l-.042.296c-.018.13-.075.23-.17.3s-.222.11-.377.11zm.03-.21c.074 0 .13-.018.17-.053a.246.246 0 0 0 .077-.16l.04-.28c.008-.074 0-.13-.03-.165s-.083-.052-.158-.052-.134.017-.174.052c-.04.035-.065.09-.075.164l-.038.275c-.013.076-.003.132.027.167s.083.053.16.053zM42.438 32h-.355l-.198-1.09h.27l.14.877.386-.878h.26L42.44 32zM44.074 31.75a.476.476 0 0 1-.196.208.758.758 0 0 1-.34.06.52.52 0 0 1-.345-.104c-.08-.07-.112-.174-.093-.312l.04-.29c.02-.137.08-.24.178-.313s.224-.11.374-.11c.152 0 .266.038.343.11s.107.18.087.318l-.027.19h-.71l-.014.106c-.01.073.002.125.032.16.032.036.086.053.165.053a.37.37 0 0 0 .167-.03.277.277 0 0 0 .114-.11l.226.064zm-.658-.457l-.01.056h.438l.005-.04c.01-.084.003-.144-.027-.18-.028-.035-.082-.054-.16-.054-.077 0-.135.018-.173.05-.038.035-.062.09-.074.167zM44.465 32.318l.26-.772h.436l-.504.772h-.19zM29.692 34.4l-.268-1.092-.153 1.092h-.236l.204-1.454h.322l.282 1.142.16-1.142h.236l-.204 1.454h-.342zM31.347 34.15a.476.476 0 0 1-.197.208.758.758 0 0 1-.34.06.52.52 0 0 1-.344-.104c-.08-.07-.112-.173-.094-.312l.04-.29c.02-.137.08-.24.18-.313s.222-.11.373-.11c.15 0 .265.038.343.11s.106.18.087.32l-.028.19h-.71l-.013.105c-.01.072 0 .125.03.16.032.035.087.053.166.053a.37.37 0 0 0 .167-.032.277.277 0 0 0 .113-.11l.227.065zm-.66-.457l-.007.056h.436l.005-.04c.014-.084.005-.144-.024-.18-.03-.035-.082-.053-.16-.053s-.135.017-.173.05c-.038.035-.063.09-.075.166zM32.634 34.468a.322.322 0 0 1-.145.23.515.515 0 0 1-.298.084h-.327a.482.482 0 0 1-.287-.07.184.184 0 0 1-.08-.19.222.222 0 0 1 .073-.143.257.257 0 0 1 .15-.066l.003-.036a.203.203 0 0 1-.1-.057c-.025-.028-.034-.07-.025-.13.008-.06.036-.11.083-.152a.3.3 0 0 1 .18-.074l.007-.035c-.06-.017-.1-.045-.122-.083a.185.185 0 0 1-.023-.125l.003-.025a.288.288 0 0 1 .143-.21.583.583 0 0 1 .312-.077h.594l-.025.18-.287-.037-.004.034a.166.166 0 0 1 .123.186l-.004.027a.278.278 0 0 1-.14.206.613.613 0 0 1-.32.074h-.187a.156.156 0 0 0-.088.022c-.022.015-.035.04-.04.075-.005.033.003.06.023.074.022.017.053.025.097.025h.367c.113 0 .2.023.266.07.064.048.09.122.076.223zm-.743.14h.337c.047 0 .086-.006.118-.022s.05-.046.058-.09c.006-.046-.004-.076-.03-.092s-.06-.023-.104-.023h-.49l-.015.106c-.005.04.003.072.023.092.022.022.055.03.103.03zm.24-.78c.06 0 .108-.01.14-.035s.054-.06.06-.104l.01-.075c.008-.044-.003-.077-.03-.1-.028-.023-.072-.035-.132-.035a.248.248 0 0 0-.142.035.14.14 0 0 0-.058.1l-.01.074c-.007.044.003.08.03.103.024.024.068.036.13.036zM33.166 34.42a.35.35 0 0 1-.24-.08c-.06-.055-.082-.133-.068-.236a.32.32 0 0 1 .134-.23.456.456 0 0 1 .272-.08h.31l.02-.14c.008-.055-.003-.095-.032-.12-.03-.026-.077-.04-.142-.04-.066 0-.117.012-.153.034s-.068.07-.094.138l-.222-.046c.042-.116.103-.2.18-.252a.594.594 0 0 1 .325-.077c.142 0 .25.03.32.087.075.057.102.145.085.266l-.06.44c-.01.055 0 .09.032.103.03.013.078.015.14.007l-.03.205a.4.4 0 0 1-.224-.007c-.06-.023-.093-.077-.098-.162h-.045a.567.567 0 0 1-.41.19zm.085-.19c.052 0 .1-.007.146-.023a.42.42 0 0 0 .13-.077l.027-.177h-.273a.197.197 0 0 0-.11.03c-.03.02-.048.056-.056.112-.006.044.002.077.023.1.02.025.058.036.114.036zM34.814 34.42c-.135 0-.236-.033-.302-.098s-.09-.16-.073-.284l.073-.52h-.283l.03-.208h.282l.05-.364h.273l-.05.364h.436l-.028.21h-.437l-.067.484c-.01.07 0 .12.027.152.028.032.07.048.13.048a.74.74 0 0 0 .234-.036l.01.207a.82.82 0 0 1-.132.03 1.18 1.18 0 0 1-.174.014zM35.416 34.4l.03-.21h.345l.095-.67h-.345l.028-.21h.62l-.125.88h.346l-.03.21h-.964zm.67-1.272a.292.292 0 0 1-.136-.027c-.032-.018-.046-.05-.04-.094l.002-.02c.008-.047.03-.08.068-.097s.087-.03.145-.03c.06 0 .104.01.138.03s.046.05.04.096l-.003.02a.115.115 0 0 1-.07.095.353.353 0 0 1-.143.028zM37.348 34.4h-.355l-.198-1.09h.27l.14.877.386-.877h.262l-.504 1.09zM38.983 34.15a.476.476 0 0 1-.196.208.758.758 0 0 1-.34.06.52.52 0 0 1-.344-.104c-.082-.07-.113-.173-.094-.312l.04-.29c.018-.137.078-.24.178-.313s.223-.11.374-.11c.15 0 .265.038.342.11s.107.18.087.32l-.026.19h-.71l-.014.105c-.01.072 0 .125.032.16.03.035.085.053.165.053a.37.37 0 0 0 .167-.032.277.277 0 0 0 .113-.11l.226.065zm-.658-.457l-.01.056h.438l.005-.04c.013-.084.004-.144-.026-.18-.028-.035-.082-.053-.16-.053-.077 0-.134.017-.173.05-.04.035-.063.09-.075.166zM29.542 36.814a.933.933 0 0 1-.272-.04.656.656 0 0 1-.224-.114l.106-.18c.06.046.125.083.2.107s.15.036.22.036c.06 0 .11-.01.153-.026s.065-.05.07-.1c.01-.045-.005-.077-.038-.097a.583.583 0 0 0-.188-.047c-.144-.016-.25-.046-.32-.092s-.096-.12-.08-.224c.015-.11.07-.194.162-.255s.203-.09.332-.09a.762.762 0 0 1 .443.144l-.098.172a.65.65 0 0 0-.366-.124.292.292 0 0 0-.135.028.118.118 0 0 0-.067.096c-.005.046.01.077.05.096s.106.033.205.045c.138.017.24.05.3.103s.088.124.074.22a.34.34 0 0 1-.17.257c-.1.058-.22.087-.36.087zM31.347 36.55a.476.476 0 0 1-.197.208.758.758 0 0 1-.34.06.52.52 0 0 1-.344-.104c-.08-.07-.112-.174-.094-.313l.04-.29c.02-.135.08-.24.18-.31s.222-.11.373-.11c.15 0 .265.038.343.11s.106.18.087.318l-.028.19h-.71l-.013.106c-.01.072 0 .125.03.16.032.035.087.053.166.053a.37.37 0 0 0 .167-.03.277.277 0 0 0 .113-.112l.227.066zm-.66-.457l-.007.055h.436l.005-.04c.014-.083.005-.142-.024-.178-.03-.035-.082-.054-.16-.054s-.135.018-.173.05c-.038.035-.063.09-.075.167zM31.606 36.8l.03-.21h.354l.146-1.035h-.355l.03-.21h.628l-.175 1.246h.345l-.03.21h-.972zM33.093 37.163l.175-1.245h-.3l.028-.21h.3l.01-.064a.355.355 0 0 1 .16-.25.57.57 0 0 1 .33-.094c.047 0 .097.004.146.012.05.007.093.02.13.034l-.06.19a.664.664 0 0 0-.223-.036c-.06 0-.108.013-.145.037s-.06.066-.07.12l-.006.052h.426l-.028.208h-.428l-.175 1.245h-.272zM34.18 36.28l.035-.244h1.036l-.034.245H34.18zM36.087 36.818c-.136 0-.236-.032-.303-.096s-.09-.16-.072-.285l.073-.52h-.282l.03-.208h.28l.052-.364h.273l-.05.363h.435l-.03.208h-.435l-.068.485c-.01.07 0 .12.028.153.028.03.07.048.13.048a.74.74 0 0 0 .234-.036l.01.206a.82.82 0 0 1-.13.032 1.18 1.18 0 0 1-.175.012zM36.984 36.818a.35.35 0 0 1-.24-.08c-.06-.053-.082-.132-.067-.234a.32.32 0 0 1 .134-.23.456.456 0 0 1 .272-.082h.312l.02-.14c.006-.054-.005-.094-.034-.12-.028-.025-.076-.037-.142-.037-.066 0-.117.01-.153.033s-.067.068-.094.137l-.22-.045c.04-.117.1-.2.18-.252a.594.594 0 0 1 .323-.078c.142 0 .25.03.322.086.073.057.1.146.084.266l-.063.44c-.01.055.002.09.033.103.032.014.08.016.14.008l-.028.205a.4.4 0 0 1-.226-.008c-.06-.023-.093-.078-.098-.163h-.044a.567.567 0 0 1-.41.19zm.085-.187a.42.42 0 0 0 .276-.102l.025-.175h-.27a.197.197 0 0 0-.113.03c-.028.018-.047.055-.054.11-.006.045.002.078.022.103.02.023.06.035.114.035zM37.97 36.8l.03-.21h.354l.146-1.035h-.354l.03-.21h.626l-.175 1.246h.346l-.03.21h-.972zM39.618 36.33l-.065.47h-.273l.203-1.454h.273l-.11.79h.08l.374-.427h.296l-.457.497.298.593h-.297l-.242-.47h-.08z"/></g></svg>
