<svg xmlns="http://www.w3.org/2000/svg" viewBox="0 0 80 80" enable-background="new 0 0 80 80"><path fill="#FFF" d="M40 73C21.804 73 7 58.196 7 40S21.804 7 40 7s33 14.804 33 33-14.804 33-33 33z"/><path d="M40 9c17.093 0 31 13.907 31 31S57.093 71 40 71 9 57.093 9 40 22.907 9 40 9m0-4C20.67 5 5 20.67 5 40s15.67 35 35 35 35-15.67 35-35S59.33 5 40 5z"/><path fill="#FFF" d="M40 65.5c-14.06 0-25.5-11.44-25.5-25.5S25.94 14.5 40 14.5 65.5 25.94 65.5 40 54.06 65.5 40 65.5z"/><path d="M40 16.5c12.958 0 23.5 10.542 23.5 23.5S52.958 63.5 40 63.5 16.5 52.958 16.5 40 27.042 16.5 40 16.5m0-4c-15.188 0-27.5 12.312-27.5 27.5S24.812 67.5 40 67.5 67.5 55.188 67.5 40 55.188 12.5 40 12.5z"/><g><defs><filter id="a" filterUnits="userSpaceOnUse" x="31" y="48" width="18" height="31"><feColorMatrix values="-1 0 0 0 1 0 -1 0 0 1 0 0 -1 0 1 0 0 0 1 0" color-interpolation-filters="sRGB" result="source"/></filter></defs><mask maskUnits="userSpaceOnUse" x="31" y="48" width="18" height="31" id="b"><ellipse cx="40" cy="40.206" rx="33.75" ry="35" filter="url(#a)"/></mask><path mask="url(#b)" fill="#FFF" d="M49 48H31v31h18V48z"/></g><circle cx="40" cy="40" r="8"/><path d="M42 80.206h-4a3 3 0 0 1-3-3V53a3 3 0 0 1 3-3h4a3 3 0 0 1 3 3v24.206a3 3 0 0 1-3 3z"/></svg>
